HIERARCHY
ROOT Hips
{
	OFFSET -0.179506 -22.333345 2.821913
	CHANNELS 6 Xposition Yposition Zposition Zrotation Yrotation Xrotation 
	JOINT LeftUpLeg
	{
		OFFSET 6.951974 -9.140623 -0.681533
		CHANNELS 3 Zrotation Yrotation Xrotation
		JOINT LeftLeg
		{
			OFFSET 3.427654 -37.519855 -0.449580
			CHANNELS 3 Zrotation Yrotation Xrotation
			JOINT LeftFoot
			{
				OFFSET -1.359570 -39.796059 -4.369333
				CHANNELS 3 Zrotation Yrotation Xrotation
				JOINT LeftToe
				{
					OFFSET 2.635814 -5.579078 11.928840
					CHANNELS 3 Zrotation Yrotation Xrotation
					End Site
					{
						OFFSET 0.000000 0.000000 0.000000
					}
				}
			}
		}
	}
	JOINT RightUpLeg
	{
		OFFSET -6.767048 -9.052170 -0.431982
		CHANNELS 3 Zrotation Yrotation Xrotation
		JOINT RightLeg
		{
			OFFSET -3.829005 -38.256897 -0.885003
			CHANNELS 3 Zrotation Yrotation Xrotation
			JOINT RightFoot
			{
				OFFSET 1.577377 -39.841461 -4.231180
				CHANNELS 3 Zrotation Yrotation Xrotation
				JOINT RightToe
				{
					OFFSET -2.537174 -4.814398 12.334795
					CHANNELS 3 Zrotation Yrotation Xrotation
					End Site
					{
						OFFSET 0.000000 0.000000 0.000000
					}
				}
			}
		}
	}
	JOINT Spine
	{
		OFFSET -0.253288 10.896323 -2.669631
		CHANNELS 3 Zrotation Yrotation Xrotation
		JOINT Spine1
		{
			OFFSET 0.548704 13.518043 0.109247
			CHANNELS 3 Zrotation Yrotation Xrotation
			JOINT Spine2
			{
				OFFSET 0.145701 5.292222 2.542457
				CHANNELS 3 Zrotation Yrotation Xrotation
				JOINT Neck
				{
					OFFSET -0.277840 21.387037 -4.285703
					CHANNELS 3 Zrotation Yrotation Xrotation
					JOINT Head
					{
						OFFSET 0.515184 6.496960 5.134897
						CHANNELS 3 Zrotation Yrotation Xrotation
						End Site
						{
							OFFSET 0.000000 0.000000 0.000000
						}
					}
				}
				JOINT LeftShoulder
				{
					OFFSET 7.884473 12.174932 -3.408961
					CHANNELS 3 Zrotation Yrotation Xrotation
					JOINT LeftArm
					{
						OFFSET 9.097692 3.046888 -0.886815
						CHANNELS 3 Zrotation Yrotation Xrotation
						JOINT LeftForeArm
						{
							OFFSET 25.961220 -1.277207 -2.745643
							CHANNELS 3 Zrotation Yrotation Xrotation
							JOINT LeftHand
							{
								OFFSET 24.923361 0.898606 -0.117091
								CHANNELS 3 Zrotation Yrotation Xrotation
								End Site
								{
									OFFSET 0.000000 0.000000 0.000000
								}
							}
						}
					}
				}
				JOINT RightShoulder
				{
					OFFSET -8.175920 11.883285 -3.861528
					CHANNELS 3 Zrotation Yrotation Xrotation
					JOINT RightArm
					{
						OFFSET -9.601238 3.255117 -0.914307
						CHANNELS 3 Zrotation Yrotation Xrotation
						JOINT RightForeArm
						{
							OFFSET -25.374195 -1.332924 -2.140099
							CHANNELS 3 Zrotation Yrotation Xrotation
							JOINT RightHand
							{
								OFFSET -25.529810 0.777228 -0.555919
								CHANNELS 3 Zrotation Yrotation Xrotation
								End Site
								{
									OFFSET 0.000000 0.000000 0.000000
								}
							}
						}
					}
				}
			}
		}
	}
}
MOTION
Frames: 11
Frame Time: 0.033333
-0.179506 111.432617 2.821913 1.005027 -7.009987 -3.370065 5.049460 4.770112 -0.534140 -2.408511 1.128185 7.740863 1.944894 15.389539 -14.966391 1.100864 -0.969989 -0.928743 -7.460930 -5.800033 -5.286521 -0.176091 -4.416446 10.222376 3.233636 -11.585058 -10.784247 1.639281 0.561085 -1.932800 -2.482443 1.499434 11.480525 1.634318 -1.863607 0.203419 0.777204 -0.724284 0.347061 1.839171 -6.494907 -12.240954 5.903514 -6.590081 -18.852157 -22.708477 -4.364094 1.079759 -35.279912 -4.921054 11.542951 0.589450 -42.352721 8.428608 -4.421108 -15.098897 3.932358 22.514188 8.655564 2.355242 37.093110 1.360930 9.340162 -4.629808 38.171161 3.866009 6.393930 10.359596 4.964271 
-0.244405 111.450867 2.895547 1.001031 -7.562815 -3.200997 5.091954 4.871727 -0.735282 -2.387858 1.673766 8.058430 1.882605 15.490037 -14.972868 1.128745 -0.975818 -0.940350 -7.452638 -5.628249 -5.653854 0.022754 -3.966147 10.439766 3.184385 -11.596593 -10.770592 1.629362 0.589310 -1.925119 -2.385770 1.456326 11.384648 1.589642 -1.870133 0.099605 0.765834 -0.735761 0.435574 1.938056 -6.218882 -12.770255 5.788044 -6.533108 -18.812175 -22.827827 -4.660817 0.965717 -35.299171 -4.957744 11.776312 0.393272 -41.710857 8.533636 -4.215659 -14.982712 4.030810 22.587856 8.830351 2.201991 37.067430 1.634390 9.510846 -4.727635 38.431504 3.568379 5.884207 10.307893 4.473043 
-0.175862 111.407196 2.934278 0.959734 -8.053402 -3.125254 5.127284 5.024048 -1.075250 -2.403234 2.316987 8.773755 1.919794 15.494373 -15.327140 1.152764 -0.972568 -0.946049 -7.493073 -5.514319 -6.157374 0.139637 -3.779097 11.050498 3.183380 -11.481564 -10.908575 1.644629 0.609733 -1.942840 -2.225066 1.363237 11.604776 1.500480 -1.828694 -0.183380 0.777569 -0.738822 0.590101 2.013275 -5.898514 -13.252533 5.510151 -6.403593 -18.852021 -22.970385 -4.873966 0.916816 -35.362237 -4.886404 11.856099 0.225534 -41.034874 8.657375 -3.864438 -14.880800 4.009429 22.534281 9.030669 2.025527 36.968812 2.020970 9.556311 -4.948664 38.836815 3.299459 5.359428 10.300725 4.030130 
-0.023006 111.335587 2.998222 0.917365 -8.508568 -3.025462 5.115827 5.193972 -1.466797 -2.413963 3.052953 9.562997 2.035198 15.399237 -15.828304 1.195682 -0.951597 -0.939196 -7.562447 -5.437734 -6.675434 0.176576 -3.788285 11.655795 3.306850 -11.315886 -11.130092 1.648768 0.618395 -1.942160 -2.009605 1.230338 11.929176 1.397707 -1.843481 -0.610558 0.805365 -0.762601 0.800352 2.059040 -5.581416 -13.820770 5.182911 -6.221978 -18.968431 -23.043041 -5.170230 0.921904 -35.605275 -4.794626 11.842705 -0.103638 -39.758574 9.088721 -3.707537 -14.636011 4.046192 22.456157 9.267153 1.859536 36.903694 2.551174 9.524079 -5.404482 39.318775 2.896251 4.915788 10.228659 3.564662 
0.158996 111.268356 3.090308 0.853643 -9.163932 -2.970251 5.141176 5.386039 -1.829223 -2.457738 3.758731 10.501543 2.189851 15.425906 -16.316936 1.230742 -0.965792 -0.944095 -7.611500 -5.301911 -7.409585 0.167351 -3.765479 12.685122 3.383102 -11.077996 -11.303633 1.688910 0.645697 -2.022525 -1.744594 0.954890 12.582271 1.334896 -1.852714 -1.304886 0.899837 -0.848133 1.185332 2.089136 -5.132266 -14.425376 4.767155 -5.836459 -18.830557 -23.223043 -5.348516 1.058053 -36.078378 -4.608579 11.709490 -0.184974 -38.673774 9.329593 -3.434258 -14.225468 4.053644 22.406727 9.517628 1.695717 36.619350 3.282777 9.248115 -6.044852 40.037613 2.434714 4.467426 10.061341 3.062606 
0.390010 111.213120 3.140377 0.782382 -9.907458 -2.859252 5.096431 5.629861 -2.242625 -2.402977 4.461920 11.397497 2.297806 15.435555 -16.808456 1.295893 -0.982205 -0.936403 -7.646485 -5.021611 -8.445594 0.112088 -3.693712 14.044501 3.638942 -10.981820 -11.467579 1.708112 0.651211 -2.066912 -1.332513 0.464690 13.370588 1.323179 -2.008781 -2.128214 1.088896 -1.063443 1.745069 1.940577 -4.315829 -15.178926 4.115873 -5.027529 -18.703888 -23.542195 -5.818288 1.337021 -36.829478 -4.535646 11.718190 -0.486183 -37.630777 9.963825 -3.237626 -13.696470 4.260201 22.532591 9.754147 1.662090 36.169972 3.981565 8.798261 -7.019800 41.021214 1.390266 3.889804 9.934130 2.421337 
0.524913 111.174469 3.253563 0.710656 -10.683670 -2.440712 5.041533 6.025057 -2.711664 -2.263431 5.243128 11.873445 2.219361 15.347400 -17.264502 1.370172 -0.995795 -0.916507 -7.603485 -4.553004 -9.853438 0.086791 -3.493799 15.547403 3.750613 -11.074812 -11.618215 1.766926 0.649261 -2.048657 -0.789733 -0.277347 13.969302 1.490200 -2.387207 -2.950898 1.398753 -1.459033 2.299698 1.471551 -2.839710 -15.910418 3.322763 -3.672412 -18.797076 -23.838765 -6.600200 1.635257 -38.256405 -4.917659 12.074140 -1.028129 -35.860736 11.221679 -2.738476 -13.345580 4.502735 22.692583 9.903215 1.482864 36.084483 4.608888 8.333264 -8.479596 41.126082 -0.640806 2.838363 10.094499 1.354222 
0.655974 111.138962 3.473314 0.561489 -11.944609 -1.912807 4.996115 6.432634 -3.331215 -2.012691 5.924143 12.741680 2.124409 15.664730 -17.755845 1.459219 -0.981422 -0.930580 -7.437992 -3.605631 -11.745215 0.118491 -2.554238 17.720989 3.687598 -11.299825 -11.877565 1.826284 0.598821 -2.029203 -0.120192 -1.375953 14.790827 1.790983 -2.929822 -3.661953 1.848261 -2.092201 2.830884 0.472997 -0.415234 -16.308443 2.134669 -1.432398 -19.198570 -23.898260 -7.801000 1.798831 -40.124078 -5.840617 12.695101 -1.758817 -34.602402 12.914953 -2.039539 -13.085568 4.911373 22.851511 9.874543 1.126920 36.264871 4.911918 7.754837 -10.082612 39.901358 -3.155207 1.241346 10.428839 0.187509 
0.676831 111.010757 3.412921 0.526898 -13.805016 -1.359477 5.137898 7.092179 -4.029649 -2.085852 6.922549 13.602324 2.140936 16.067394 -18.198661 1.442073 -0.984411 -0.906722 -7.365680 -2.584577 -14.237437 0.475528 -1.242905 20.239549 3.428069 -11.122633 -12.573724 1.889560 0.549219 -2.023280 0.522901 -2.767728 15.742027 2.401054 -3.665450 -3.978937 2.358950 -2.970122 3.083380 -1.202332 3.154006 -16.178757 0.494581 1.819085 -19.533450 -23.647434 -9.624891 2.038871 -41.922124 -7.699300 13.557648 -3.076382 -34.301145 15.202670 -1.581763 -13.227507 5.889233 22.995459 9.801825 0.885888 36.226676 4.643903 6.762744 -11.398380 36.485112 -6.256452 0.420257 10.772369 -0.599845 
0.559289 110.616486 3.432633 0.382350 -15.858931 -0.894392 5.571765 7.696806 -5.026160 -2.235181 7.697742 15.575555 1.940789 16.766826 -19.578082 1.346999 -0.973952 -0.933125 -7.362884 -1.412685 -17.297016 1.274871 -0.028333 24.072100 2.955155 -10.442184 -14.362381 1.852528 0.470575 -2.091645 1.334169 -4.451321 17.536065 3.224608 -4.526028 -4.208305 2.917749 -3.975566 3.122191 -3.774795 7.850047 -16.220568 -1.795472 6.184914 -19.920687 -22.825429 -12.210775 2.184813 -43.107028 -10.388582 13.713528 -3.618655 -35.455535 17.056030 -1.516022 -13.451106 6.880036 23.076618 9.562681 0.887766 35.641038 3.914173 5.151961 -12.674499 31.700576 -10.268724 0.505720 10.895081 -2.107482 
0.336291 109.706711 3.120859 0.713607 -18.350525 -1.235535 5.936257 8.291473 -6.290988 -2.515276 8.674071 19.399720 1.962669 17.442032 -21.742867 1.273181 -0.978786 -0.972830 -7.758409 -0.294652 -20.480413 2.293700 1.395349 28.654998 2.363055 -9.148920 -16.968497 1.595968 0.541988 -2.063914 1.917545 -6.183949 19.935172 4.132994 -5.475011 -4.174106 3.403504 -4.928235 3.089590 -6.836022 12.955583 -16.128384 -4.547174 10.922177 -20.510038 -21.254443 -15.131221 2.160046 -43.582019 -13.663966 13.091860 -3.750490 -37.350047 18.102256 -2.651350 -13.344324 7.075432 22.786328 9.232911 1.145832 34.915924 3.434644 3.377018 -12.695472 25.655769 -13.851800 1.978145 10.476633 -3.540441 
